<svg width='200' height='200' fill="#000000" xmlns="http://www.w3.org/2000/svg" xmlns:xlink="http://www.w3.org/1999/xlink" version="1.1" x="0px" y="0px" viewBox="0 0 100 100" enable-background="new 0 0 100 100" xml:space="preserve"><g><g><g><g><path d="M70.4,37.3c7.9,0,19,10.2,19,26.7c0,0.5,0,0.9-0.1,1.4C86.6,57.7,79.5,52,71,51.4c-0.6-1.6-1.4-2.8-2.3-4.1      c-1.8-2.8-4-5.3-6.3-7.1C65.1,38.3,67.9,37.3,70.4,37.3z"/><path d="M70.3,12.5c5.5,0,10.1,4.5,10.1,10.1c0,2.2-0.6,4.1-1.8,5.8c-0.4,0.4-0.6,0.8-0.9,1c-1.8,1.9-4.4,3.1-7.2,3.1      c-2.2,0-4.3-0.6-5.9-1.9c0.8-2.1,1.3-4.1,1.3-6.4c0-3.1-1-6.1-2.6-8.6C65,13.7,67.4,12.5,70.3,12.5z"/><path d="M69.7,56.4c1.3,0,2.6,0.3,3.7,0.5c6.3,1.5,11.1,7.1,11.6,13.7c0.1,0.5,0.1,0.9,0.1,1.4c0,1.4-0.1,2.7-0.5,4      c-1.8,6.6-7.7,11.5-15,11.5c-3.3,0-6.3-1-8.9-2.8c-1.8-1.2-3.2-2.8-4.4-4.6c-1.4-2.3-2.3-5.2-2.3-8c0-7.7,5.8-14.2,13.2-15.4      c0.3-0.1,0.5-0.1,0.8-0.1C68.7,56.4,69.2,56.4,69.7,56.4z M78.9,69c0.6-0.7,0.8-1.7,0.4-2.5c-0.7-1.5-2.7-1.9-3.9-0.7      c-2.6,2.9-5.2,5.9-7.9,8.8c-0.9-0.9-1.9-1.8-2.8-2.7c-1.2-1.1-3.3-0.7-3.9,0.8c-0.4,0.9-0.1,1.9,0.6,2.5l4.5,4.3      c0.4,0.4,1,0.7,1.7,0.7c0.7,0,1.3-0.3,1.8-0.8l2.6-3C74.4,74,76.7,71.5,78.9,69z"/><path d="M58.3,43.9c2.7,1.8,5.2,4.5,7.2,7.9c-0.5,0.1-1.2,0.3-1.7,0.4C55.3,54.7,49,62.6,49,72c0,3,0.6,5.8,1.8,8.4      c-6.1,0.1-12.3-0.6-16.5-2.5c-1.4-0.5-2.6-1.3-3.5-2.1c-0.8-0.8-1.4-1.5-1.8-2.6c-0.4-0.9-0.6-1.9-0.6-3.1      c0-12.9,6.1-22.3,12.6-26.7c1.4-1,2.8-1.7,4.3-2.2c1.4-0.5,2.8-0.8,4.1-0.8c1.5,0,3.1,0.4,4.8,1C55.6,42.1,56.8,42.8,58.3,43.9z      "/><path d="M49.4,12.9c6.1,0,11,4.9,11,11s-4.9,11-11,11s-11-4.9-11-11S43.3,12.9,49.4,12.9z"/><path d="M10.6,63.9c0-16.5,11.1-26.7,19-26.7c2.3,0,5,0.9,7.5,2.6c-2.6,1.9-4.9,4.4-6.8,7.5c-4.4,6.6-7,15.1-6.8,22.7      c0,1,0,1.9,0.3,2.8C19,72.3,14.9,71,12.9,69C11.3,67.6,10.6,65.9,10.6,63.9z"/><path d="M19.4,22.7c0-5.5,4.5-10.1,10.1-10.1c2.6,0,4.8,0.9,6.6,2.5c-1.8,2.6-2.8,5.7-2.8,9.2c0,2.5,0.5,4.8,1.4,7      c-1.4,1-3.2,1.6-5.2,1.6c-2.8,0-5.4-1.2-7.2-3.1c-0.3-0.4-0.5-0.8-0.9-1.2C20.1,26.8,19.4,24.9,19.4,22.7z"/></g></g></g></g></svg>