<svg width='200' height='200' fill="#000000" xmlns="http://www.w3.org/2000/svg" xmlns:xlink="http://www.w3.org/1999/xlink" version="1.1" x="0px" y="0px" viewBox="0 0 64 64" enable-background="new 0 0 64 64" xml:space="preserve"><g><path d="M53.684,37.578c3.087,0.038,5.884-0.791,8.365-2.661c0.999-0.753,1.389-1.498,0.726-2.741   c-0.725-1.359-1.169-2.865-1.849-4.251c-1.866-3.803-3.793-7.577-5.693-11.364c-0.567-1.129-1.313-1.523-2.627-1.054   c-1.83,0.653-3.727,1.135-5.624,1.568c-0.739,0.169-1.622,0.202-2.322-0.04c-3.193-1.103-6.307-2.445-9.529-3.449   c-1.291-0.402-2.891-0.515-4.165-0.135c-3.893,1.159-7.701,2.603-11.529,3.973c-1.298,0.465-1.613,1.377-0.9,2.582   c1.263,2.135,3.154,3.491,5.612,3.376c2.431-0.113,4.867-0.608,7.245-1.174c1.422-0.339,2.418-0.229,3.547,0.809   c4.811,4.422,9.676,8.79,14.626,13.055C49.565,36.072,52.282,37.623,53.684,37.578z"/><path d="M11.462,32.487c-0.308-0.716-0.83-1.328-1.508-1.713c-1.315-0.745-2.824-0.502-4.073,0.783   c-0.518,0.533-1.05,1.055-1.552,1.603c-1.325,1.45-1.44,2.827-0.282,4.465c1.09,1.54,2.21,3.064,3.405,4.524   c2.607,3.185,5.225,6.364,7.931,9.464c1.302,1.492,3.263,1.539,4.558,0.246c1.01-1.008,1.97-2.076,2.863-3.189   c1.239-1.546,0.894-3.566-0.8-4.579c-0.652-0.39-1.462-0.515-2.201-0.76c1.361-3.381,0.479-4.944-3.274-5.661   c0.067-3.108-0.233-4.825-4.086-4.961l-0.893-0.018L11.462,32.487z"/><path d="M23.487,53.203c0.405,0.589,0.878,1.13,1.41,1.608c2.798,2.515,4.388,2.498,8.192,0.446c0.368-0.199,0.98-0.17,1.396-0.019   c3.057,1.106,5.514,0.404,7.491-2.069c0.447-0.559,1.165-1.033,1.851-1.246c1.847-0.574,3.235-1.572,4.186-3.303   c0.429-0.781,1.157-1.508,1.922-1.973c2.424-1.473,3.49-3.534,3.03-6.448c-0.782-0.07-1.597-0.143-2.503-0.224   c0.049,0.495,0.099,0.777,0.101,1.059c0.008,1.591-0.704,2.74-2.151,3.411c0,0-0.807,0.475-2.628-1.346l-9.554-9.554   c-0.406-0.406-1.06-0.418-1.48-0.027l0,0c-0.444,0.413-0.455,1.112-0.025,1.539c3.44,3.41,6.885,6.815,10.305,10.245   c0,0,1.952,2.022-1.334,3.849c-0.942,0.523-1.786,0.082-2.557-0.704c-3.026-3.084-6.076-6.147-9.182-9.15   c-0.388-0.375-1.003-0.38-1.398-0.012h0c-0.42,0.391-0.432,1.053-0.027,1.46c2.829,2.834,5.676,5.652,8.506,8.485   c1.531,1.533,1.307,2.695-0.683,3.606c-1.447,0.663-2.643,0.261-3.725-0.842c-2.057-2.097-4.118-4.192-6.237-6.223   c-0.392-0.375-1.016-0.355-1.385,0.043l0,0c-0.351,0.378-0.346,0.964,0.012,1.336l3.59,3.737c0.005,0.005,0.01,0.011,0.015,0.016   c0.843,0.91,0.516,2.402-0.617,2.906c-0.246,0.109-0.494,0.186-0.747,0.206c-0.792,0.062-1.762-0.442-2.433-0.974   c-0.864-0.685-1.507-1.648-2.294-2.546l-1.725,1.725L23.487,53.203z"/><path d="M4.846,28.9c-0.399,0.466-0.913,1.065-1.784,2.082c-0.771-1.696-1.855-3.103-2.02-4.611   c-0.846-7.744,1.999-14.015,8.176-18.73c0.507-0.387,1.501-0.49,2.138-0.296c4.978,1.516,9.924,3.137,15.108,4.798   c-2.164,1.127-4.05,1.654-6.297,0.761c-2.707-1.076-5.523-1.9-8.337-2.669c-0.676-0.185-1.751,0.029-2.266,0.484   C5.007,14.754,3.02,19.88,3.59,25.928C3.681,26.887,4.36,27.79,4.846,28.9z"/></g></svg>