<?xml version="1.0" encoding="utf-8"?>
<!-- Generator: Adobe Illustrator 15.0.0, SVG Export Plug-In . SVG Version: 6.00 Build 0)  -->
<!DOCTYPE svg PUBLIC "-//W3C//DTD SVG 1.1//EN" "http://www.w3.org/Graphics/SVG/1.1/DTD/svg11.dtd">
<svg version="1.1" id="Layer_1" fill="#000000" xmlns="http://www.w3.org/2000/svg" xmlns:xlink="http://www.w3.org/1999/xlink" x="0px" y="0px"
	 width="200px" height="200px" viewBox="0 0 200 200" enable-background="new 0 0 200 200" xml:space="preserve">
<g>
	<path d="M53.75,99.75c0,25.401,20.594,45.995,46,45.995c25.406,0,45.999-20.594,45.999-45.995c0-25.406-20.593-46-45.999-46
		C74.344,53.75,53.75,74.344,53.75,99.75z M114.125,91.125c0,5.434-3.051,10.104-7.495,12.546c6.006,1.88,10.922,6.175,13.692,11.73
		c-4.731,6.2-12.172,10.219-20.572,10.219s-15.841-4.019-20.568-10.219c2.766-5.556,7.683-9.851,13.69-11.73
		c-4.447-2.442-7.498-7.112-7.498-12.546c0-7.938,6.438-14.375,14.375-14.375S114.125,83.187,114.125,91.125z M32.728,78.075
		l-8.208-2.65c6.106-18.895,19.478-35.079,36.843-44.761L59.65,26.8l17.101,1.823l-10.128,13.9l-1.723-3.884
		C49.757,47.31,38.084,61.495,32.728,78.075z M121.425,32.728l2.65-8.208c18.896,6.107,35.081,19.478,44.765,36.843l3.862-1.713
		l-1.824,17.101l-13.9-10.128l3.883-1.723C152.19,49.757,138.004,38.084,121.425,32.728z M78.075,166.771l-2.65,8.207
		c-18.895-6.106-35.079-19.477-44.761-36.843L26.8,139.85l1.823-17.104l13.9,10.129l-3.885,1.723
		C47.31,149.739,61.496,161.412,78.075,166.771z M166.774,121.422l8.208,2.649c-6.107,18.895-19.478,35.08-36.843,44.763
		l1.714,3.863l-17.104-1.822l10.128-13.901l1.724,3.884C149.742,152.188,161.416,138.001,166.774,121.422z M186,99.75
		c0,6.348-5.149,11.497-11.5,11.497S163,106.098,163,99.75c0-6.352,5.149-11.5,11.5-11.5S186,93.398,186,99.75z M88.25,25
		c0-6.351,5.149-11.5,11.5-11.5c6.351,0,11.5,5.149,11.5,11.5c0,6.351-5.149,11.5-11.5,11.5C93.399,36.5,88.25,31.351,88.25,25z
		 M25,111.247c-6.35,0-11.5-5.149-11.5-11.497c0-6.352,5.149-11.5,11.5-11.5c6.351,0,11.5,5.148,11.5,11.5
		C36.5,106.098,31.351,111.247,25,111.247z M111.25,174.497c0,6.35-5.149,11.499-11.5,11.499c-6.351,0-11.5-5.149-11.5-11.499
		c0-6.353,5.149-11.501,11.5-11.501C106.101,162.996,111.25,168.145,111.25,174.497z"/>
</g>
</svg>
