<svg height='200' width='200'  fill="#000000" xmlns="http://www.w3.org/2000/svg" xmlns:xlink="http://www.w3.org/1999/xlink" version="1.1" x="0px" y="0px" viewBox="0 0 100 100" enable-background="new 0 0 100 100" xml:space="preserve"><path d="M87.2,87.2c-0.1,0.2-0.1,0.4,0,0.6l4.2,5.1c0.4,0.4,0,1.1-0.5,1.1H75.8V80.8H91c0.6,0,0.9,0.7,0.5,1.1L87.2,87.2z M8.5,81.9  l4.2,5.1c0.1,0.2,0.1,0.4,0,0.6l-4.3,5.3C8.1,93.3,8.5,94,9,94h15.1V80.8H9.1C8.5,80.8,8.2,81.4,8.5,81.9z M76.5,12.4h18.1v13.9  c0,10-8.1,18.1-18.1,18.1h-2.3c-3.4,7.5-10.2,13.2-18.5,15v11.3h6.5c2,0,3.6,1.6,3.6,3.6v4.8h5.5v17H28.8v-17h5.5v-4.8  c0-2,1.6-3.6,3.6-3.6h6.5V59.3c-8.3-1.8-15.1-7.4-18.5-15h-2.3c-10,0-18.1-8.1-18.1-18.1V12.4h18.1V3.9h52.9V12.4z M23.6,35.2  c0-0.6-0.1-1.1-0.1-1.7V21.6h-8.9v4.7C14.6,31.2,18.6,35.2,23.6,35.2L23.6,35.2z M48.8,17.3c1.6,0,2.9-1.3,2.9-2.9  c0-1.6-1.3-2.9-2.9-2.9H33.9c-1.6,0-2.9,1.3-2.9,2.9v14.7c0,1.6,1.3,2.9,2.9,2.9c1.6,0,2.9-1.3,2.9-2.9V17.3H48.8z M42.7,79.9V89  h14.7v-9.1H42.7z M76.5,21.6v11.9c0,0.6,0,1.2-0.1,1.7h0.1c4.9,0,8.9-4,8.9-8.9v-4.7H76.5z"></path></svg>