<svg width='200' height='200' fill="#002d5d" xmlns="http://www.w3.org/2000/svg" data-name="Layer 1" viewBox="0 0 100 100" x="0px" y="0px"><title>Asorted_Icons_01_90x90</title><path d="M22.3394,78.866,28.54,95s9.0071-12.6934,19.6138-27.4707l-.59-.8207c-2.7417-3.8154-5.5566-7.7209-8.3286-11.5522C30.7488,67.0745,22.3394,78.866,22.3394,78.866Z"/><path d="M51.8406,37.4326l8.9392,12.57c13.9961-19.678,10.54-27.2648,7.2314-32.9-2.0049-3.415-3.6011-6.1333-4.3408-7.3931,1.4072,2.8573.56,6.7732-1.3955,11.0592C59.7969,26.1991,55.5459,32.2141,51.8406,37.4326Z"/><path d="M51.2253,5H48.7747a26.2814,26.2814,0,0,0-7.0288.8013c-4.76,5.5706-3.3894,9.1573-1.7737,12.6733,2.08-1.3278,5.31-2.0925,10.0278-2.0925s7.9478.7648,10.0278,2.0925c1.6157-3.516,2.9858-7.1028-1.7737-12.6733A26.2814,26.2814,0,0,0,51.2253,5Z"/><path d="M77.6606,78.866S49.1189,38.7845,48.7046,38.2006c-3.8242-5.3873-8.38-11.7364-10.9792-17.4321C35.77,16.4824,34.9226,12.5667,36.33,9.7094c-.74,1.26-2.3357,3.978-4.3406,7.3931-3.3589,5.72-6.8831,13.4427,7.8662,33.793C40.26,51.4532,71.46,95,71.46,95Z"/></svg>